<svg width="24" height="24" viewBox="0 0 24 24" fill="none" xmlns="http://www.w3.org/2000/svg">
<g id="Iconly/Bulk/Chat">
<g id="Chat">
<path id="Fill 1" opacity="0.4" d="M12.02 2C6.21 2 2 6.74 2 12C2 13.68 2.49 15.41 3.35 16.99C3.51 17.25 3.53 17.58 3.42 17.89L2.75 20.13C2.6 20.67 3.06 21.07 3.57 20.91L5.59 20.31C6.14 20.13 6.57 20.36 7.081 20.67C8.541 21.53 10.36 21.97 12 21.97C16.96 21.97 22 18.14 22 11.97C22 6.65 17.7 2 12.02 2Z" fill="#EE5F00"/>
<path id="Combined Shape" fill-rule="evenodd" clip-rule="evenodd" d="M11.9805 13.2896C11.2705 13.2796 10.7005 12.7096 10.7005 11.9996C10.7005 11.2996 11.2805 10.7196 11.9805 10.7296C12.6905 10.7296 13.2605 11.2996 13.2605 12.0096C13.2605 12.7096 12.6905 13.2896 11.9805 13.2896ZM7.37009 13.2896C6.67009 13.2896 6.09009 12.7096 6.09009 12.0096C6.09009 11.2996 6.66009 10.7296 7.37009 10.7296C8.08009 10.7296 8.65009 11.2996 8.65009 12.0096C8.65009 12.7096 8.08009 13.2796 7.37009 13.2896ZM15.3103 12.0096C15.3103 12.7096 15.8803 13.2896 16.5903 13.2896C17.3003 13.2896 17.8703 12.7096 17.8703 12.0096C17.8703 11.2996 17.3003 10.7296 16.5903 10.7296C15.8803 10.7296 15.3103 11.2996 15.3103 12.0096Z" fill="#130F26"/>
</g>
</g>
</svg>
