<svg id="Ebene_1" xmlns="http://www.w3.org/2000/svg" viewBox="0 0 16 16"><defs><style>.cls-1{fill:#fff;}</style></defs><path class="cls-1" d="m10.21,9.6c-.13-.03-.27.07-.29.2-.02.14.07.27.2.29.68.12,2.27.73,2.3,3.67h0s-4.63,0-4.63,0c0,0,0,0,0,0h-.04s-.04,0-.04,0h0s0,0,0,0H3.07s0,0,0,0c.03-2.94,1.62-3.54,2.3-3.67.14-.03.23-.16.2-.29-.03-.14-.16-.23-.29-.2-.63.12-2.67.75-2.71,4.16v.26c0,.07.02.13.07.18.05.05.11.07.18.07h4.93s4.93,0,4.93,0h0c.07,0,.13-.03.18-.07s.07-.11.07-.18v-.26c-.04-3.4-2.08-4.04-2.71-4.16Z"/><path class="cls-1" d="m7.79,9.25c1.4,0,2.95-1.97,2.95-3.76,0-2.35-1.1-3.76-2.95-3.76s-2.95,1.44-2.95,3.76c0,1.72,1.6,3.76,2.95,3.76Zm0-7.02c2.13,0,2.45,2.04,2.45,3.26,0,1.49-1.33,3.26-2.45,3.26-.99,0-2.45-1.72-2.45-3.26,0-2.04.91-3.26,2.45-3.26Z"/></svg>