<svg id="Ebene_1" xmlns="http://www.w3.org/2000/svg" viewBox="0 0 16 16"><defs><style>.cls-1{fill:#fff;}</style></defs><path class="cls-1" d="m12.88,1.43H3.12c-.14,0-.25.11-.25.25v12.64c0,.14.11.25.25.25h9.75c.14,0,.25-.11.25-.25V1.68c0-.14-.11-.25-.25-.25Zm-.25,12.64H3.37V1.93h9.25v12.14Z"/><path class="cls-1" d="m5,9.99h5.95c.14,0,.25-.11.25-.25s-.11-.25-.25-.25h-5.95c-.14,0-.25.11-.25.25s.11.25.25.25Z"/><path class="cls-1" d="m5,11.2h5.95c.14,0,.25-.11.25-.25s-.11-.25-.25-.25h-5.95c-.14,0-.25.11-.25.25s.11.25.25.25Z"/><path class="cls-1" d="m5,12.41h3.38c.14,0,.25-.11.25-.25s-.11-.25-.25-.25h-3.38c-.14,0-.25.11-.25.25s.11.25.25.25Z"/><path class="cls-1" d="m7.31,7.04s.11.07.18.07.13-.02.18-.07l2.74-2.74c.1-.1.1-.26,0-.35s-.26-.1-.35,0l-2.56,2.56-.77-.77c-.1-.1-.26-.1-.35,0s-.1.26,0,.35l.94.94Z"/></svg>