<svg viewBox="0 0 16 16" xmlns="http://www.w3.org/2000/svg"><g fill="#fff"><path d="m12.29 2.2h-1.2v-.78c0-.14-.11-.25-.25-.25h-.95c-.14 0-.25.11-.25.25v.78h-3.46v-.78c0-.14-.11-.25-.25-.25h-.95c-.14 0-.25.11-.25.25v.78h-1.2c-.14 0-.25.11-.25.25v11.19c0 .14.11.25.25.25h8.75c.14 0 .25-.11.25-.25v-8.34s0-2.86 0-2.86c0-.14-.11-.25-.25-.25zm-2.15-.53h.45v1.56h-.45zm-4.91 0h.45v1.56h-.45zm-1.45 1.03h.95v.78c0 .14.11.25.25.25h.95c.14 0 .25-.11.25-.25v-.78h3.46v.78c0 .14.11.25.25.25h.95c.14 0 .25-.11.25-.25v-.78h.95v2.36h-8.25v-2.36zm0 10.69v-7.83h8.25v7.83h-8.24z"/><path d="m8.37 7.46c-.08-.04-.18-.03-.26.02l-.99.74c-.11.08-.13.24-.05.35s.24.13.35.05l.59-.44v3.08c0 .14.11.25.25.25s.25-.11.25-.25v-3.58c0-.09-.05-.18-.14-.22z"/></g></svg>