<svg width="28" height="28" viewBox="0 0 28 28" fill="none" xmlns="http://www.w3.org/2000/svg">
<path opacity="0.4" d="M19.0637 2.33398H8.94868C4.99368 2.33398 2.33368 5.11065 2.33368 9.24065V18.7723C2.33368 22.8907 4.99368 25.6673 8.94868 25.6673H19.0637C23.0187 25.6673 25.667 22.8907 25.667 18.7723V9.24065C25.667 5.11065 23.0187 2.33398 19.0637 2.33398Z" fill="#F4933C"/>
<path d="M12.6156 17.7902C12.3543 17.7902 12.093 17.691 11.8935 17.4915L9.12496 14.723C8.72596 14.324 8.72596 13.6777 9.12496 13.2799C9.52396 12.8809 10.1691 12.8797 10.5681 13.2787L12.6156 15.3262L17.4316 10.5102C17.8306 10.1112 18.4758 10.1112 18.8748 10.5102C19.2738 10.9092 19.2738 11.5555 18.8748 11.9545L13.3378 17.4915C13.1383 17.691 12.877 17.7902 12.6156 17.7902Z" fill="#F4933C"/>
</svg>
